%TF.GenerationSoftware,KiCad,Pcbnew,9.0.6*%
%TF.CreationDate,2025-12-07T16:29:36+00:00*%
%TF.ProjectId,flightsimhackpad,666c6967-6874-4736-996d-6861636b7061,rev?*%
%TF.SameCoordinates,Original*%
%TF.FileFunction,Soldermask,Bot*%
%TF.FilePolarity,Negative*%
%FSLAX46Y46*%
G04 Gerber Fmt 4.6, Leading zero omitted, Abs format (unit mm)*
G04 Created by KiCad (PCBNEW 9.0.6) date 2025-12-07 16:29:36*
%MOMM*%
%LPD*%
G01*
G04 APERTURE LIST*
%ADD10C,4.000000*%
%ADD11C,2.200000*%
%ADD12C,1.524000*%
%ADD13C,1.700000*%
G04 APERTURE END LIST*
D10*
%TO.C,SW7*%
X128746250Y-156845000D03*
D11*
X126206250Y-161925000D03*
X132556250Y-159385000D03*
%TD*%
D12*
%TO.C,U1*%
X111442500Y-106680000D03*
X111442500Y-109220000D03*
X111442500Y-111760000D03*
X111442500Y-114300000D03*
X111442500Y-116840000D03*
X111442500Y-119380000D03*
X111442500Y-121920000D03*
X126682500Y-121920000D03*
X126682500Y-119380000D03*
X126682500Y-116840000D03*
X126682500Y-114300000D03*
X126682500Y-111760000D03*
X126682500Y-109220000D03*
X126682500Y-106680000D03*
%TD*%
D10*
%TO.C,SW3*%
X128746250Y-137795000D03*
D11*
X126206250Y-142875000D03*
X132556250Y-140335000D03*
%TD*%
D10*
%TO.C,SW6*%
X109696250Y-156845000D03*
D11*
X107156250Y-161925000D03*
X113506250Y-159385000D03*
%TD*%
D13*
%TO.C,SW2*%
X114776250Y-137795000D03*
D10*
X109696250Y-137795000D03*
D13*
X104616250Y-137795000D03*
D11*
X107156250Y-142875000D03*
X113506250Y-140335000D03*
%TD*%
D13*
%TO.C,SW1*%
X95726250Y-137795000D03*
D10*
X90646250Y-137795000D03*
D13*
X85566250Y-137795000D03*
D11*
X88106250Y-142875000D03*
X94456250Y-140335000D03*
%TD*%
D10*
%TO.C,SW4*%
X147796250Y-137795000D03*
D11*
X145256250Y-142875000D03*
X151606250Y-140335000D03*
%TD*%
D10*
%TO.C,SW5*%
X90646250Y-156845000D03*
D11*
X88106250Y-161925000D03*
X94456250Y-159385000D03*
%TD*%
D10*
%TO.C,SW8*%
X147796250Y-156845000D03*
D11*
X145256250Y-161925000D03*
X151606250Y-159385000D03*
%TD*%
M02*
