M48
; DRILL file {KiCad 9.0.6} date 2025-12-07T17:01:00+0000
; FORMAT={-:-/ absolute / metric / decimal}
; #@! TF.CreationDate,2025-12-07T17:01:00+00:00
; #@! TF.GenerationSoftware,Kicad,Pcbnew,9.0.6
; #@! TF.FileFunction,Plated,1,2,PTH
FMAT,2
METRIC
; #@! TA.AperFunction,Plated,PTH,ViaDrill
T1C0.300
; #@! TA.AperFunction,Plated,PTH,ComponentDrill
T2C0.889
; #@! TA.AperFunction,Plated,PTH,ComponentDrill
T3C1.500
%
G90
G05
T1
X96.5Y-120.24
X96.95Y-114.82
X97.75Y-126.06
X98.32Y-112.6
X98.517Y-119.553
X100.82Y-119.91
X100.91Y-126.26
X102.7Y-125.56
X102.98Y-126.7
X105.11Y-122.9
X105.96Y-117.94
X106.341Y-122.06
X106.47Y-116.52
X107.54Y-146.6
X107.68Y-116.32
X114.06Y-113.48
X117.08Y-143.26
X123.52Y-109.96
X124.08Y-107.6
X124.95Y-117.77
X131.59Y-110.44
X132.63Y-116.78
X139.33Y-124.06
X139.36Y-125.9
X139.46Y-118.28
X139.72Y-120.41
X155.87Y-116.91
T2
X111.442Y-106.68
X111.442Y-109.22
X111.442Y-111.76
X111.442Y-114.3
X111.442Y-116.84
X111.442Y-119.38
X111.442Y-121.92
X126.682Y-106.68
X126.682Y-109.22
X126.682Y-111.76
X126.682Y-114.3
X126.682Y-116.84
X126.682Y-119.38
X126.682Y-121.92
T3
X88.106Y-142.875
X88.106Y-161.925
X94.456Y-140.335
X94.456Y-159.385
X107.156Y-142.875
X107.156Y-161.925
X113.506Y-140.335
X113.506Y-159.385
X126.206Y-142.875
X126.206Y-161.925
X132.556Y-140.335
X132.556Y-159.385
X145.256Y-142.875
X145.256Y-161.925
X151.606Y-140.335
X151.606Y-159.385
M30
